<mxfile host="app.diagrams.net" modified="2024-07-25T18:03:39.459Z" agent="Mozilla/5.0 (Windows NT 10.0; Win64; x64) AppleWebKit/537.36 (KHTML, like Gecko) Chrome/126.0.0.0 Safari/537.36" version="23.1.2" etag="n729Zwda3WqW1EsMl4Cb" type="github">
  <diagram name="Page-1" id="_zarHmwRF9yJSp3vuCtQ">
    <mxGraphModel>
      <root>
        <mxCell id="0" />
        <mxCell id="1" parent="0" />
      </root>
    </mxGraphModel>
  </diagram>
</mxfile>
